# AST/ASF file generated using VICON BodyLanguage
# -----------------------------------------------
:version 1.10
:name VICON
:units
  mass 1.0
  length 0.45
  angle deg
:documentation
   .ast/.asf automatically generated from VICON data using
   VICON BodyBuilder and BodyLanguage model FoxedUp or BRILLIANT.MOD
:root
   order TX TY TZ RX RY RZ
   axis XYZ
   position 0 0 0  
   orientation 0 0 0 
:bonedata
  begin
     id 1 
     name lhipjoint
     direction 0.635376 -0.686425 0.353719 
     length 2.47244 
     axis 0 0 0  XYZ
  end
  begin
     id 2 
     name lfemur
     direction 0.34202 -0.939693 0  
     length 7.25268  
     axis 0 0 20  XYZ
    dof rx ry rz
    limits (-160.0 20.0)
           (-70.0 70.0)
           (-60.0 70.0)
  end
  begin
     id 3 
     name ltibia
     direction 0.34202 -0.939693 0   
     length 7.6767   
     axis 0 0 20   XYZ
    dof rx
    limits (-10.0 170.0)
  end
  begin
     id 4 
     name lfoot
     direction 0.0803374 -0.220725 0.972022   
     length 2.22945   
     axis -90 7.62852e-016 20   XYZ
    dof rx rz
    limits (-45.0 90.0)
           (-70.0 20.0)
  end
  begin
     id 5 
     name ltoes
     direction 1.53579e-011 -4.21994e-011 1   
     length 1.11848   
     axis -90 7.62852e-016 20   XYZ
    dof rx
    limits (-90.0 20.0)
  end
  begin
     id 6 
     name rhipjoint
     direction -0.664428 -0.664335 0.342336   
     length 2.55466  
     axis 0 0 0  XYZ 
  end
  begin
     id 7 
     name rfemur
     direction -0.34202 -0.939693 0   
     length 6.83172   
     axis 0 0 -20   XYZ
    dof rx ry rz
    limits (-160.0 20.0)
           (-70.0 70.0)
           (-70.0 60.0)
  end
  begin
     id 8 
     name rtibia
     direction -0.34202 -0.939693 0   
     length 7.62692   
     axis 0 0 -20   XYZ
    dof rx
    limits (-10.0 170.0)
 end
 begin
     id 9 
     name rfoot
     direction -0.0949276 -0.260811 0.960711   
     length 2.19684  
     axis -90 -7.62852e-016 -20   XYZ
    dof rx rz
    limits (-45.0 90.0)
           (-20.0 70.0)
  end
  begin
     id 10 
     name rtoes
     direction -1.53543e-011 -4.2183e-011 1   
     length 1.09848   
     axis -90 -7.62852e-016 -20   XYZ
    dof rx
    limits (-90.0 20.0)
  end
  begin
     id 11 
     name lowerback
     direction 0.0118782 0.999815 -0.0151555   
     length 2.15772   
     axis 0 0 0   XYZ
    dof rx ry rz
    limits (-20.0 45.0)
           (-30.0 30.0)
           (-30.0 30.0)
  end
  begin
     id 12 
     name upperback
     direction 0.00130825 0.999065 0.0432113   
     length 2.14863   
     axis 0 0 0   XYZ
    dof rx ry rz
    limits (-20.0 45.0)
           (-30.0 30.0)
           (-30.0 30.0)
  end
  begin
     id 13 
     name thorax
     direction -0.00347005 0.998773 0.0494011   
     length 2.14936   
     axis 0 0 0   XYZ
    dof rx ry rz
    limits (-20.0 45.0)
           (-30.0 30.0)
           (-30.0 30.0)
  end
  begin
     id 14 
     name lowerneck
     direction -0.0262159 0.99424 0.103921   
     length 1.69373   
     axis 0 0 0   XYZ
    dof rx ry rz
    limits (-20.0 45.0)
           (-30.0 30.0)
           (-30.0 30.0)
  end
  begin
     id 15 
     name upperneck
     direction 0.0353511 0.977394 -0.20845   
     length 1.70857   
     axis 0 0 0   XYZ
    dof rx ry rz
    limits (-20.0 45.0)
           (-30.0 30.0)
           (-30.0 30.0)
  end
  begin
     id 16
     name head
     direction 0.0139214 0.996594 -0.0812836  
     length 1.72777  
     axis 0 0 0   XYZ
    dof rx ry rz
    limits (-20.0 45.0)
           (-30.0 30.0)
           (-30.0 30.0)
  end
  begin
     id 17 
     name lclavicle
     direction 0.841247 0.537205 -0.0609508  
     length 3.55371  
     axis 0 0 0   XYZ
    dof ry rz
    limits (-20.0 10.0)
           (0.0 20.0)
  end
  begin
     id 18 
     name lhumerus
     direction 1 -4.48964e-011 1.60116e-018   
     length 4.91377   
     axis -180 -30 -90   XYZ
    dof rx ry rz
    limits (-60.0 90.0)
           (-90.0 90.0)
           (-90.0 90.0)
  end
  begin
     id 19
     name lradius
     direction 1 -4.48989e-011 -8.93847e-027   
     length 3.00291   
     axis -180 -30 -90   XYZ
    dof rx
    limits (-10.0 170.0)
  end
  begin
     id 20
     name lwrist
     direction 1 -4.48932e-011 -7.31504e-027   
     length 1.50145   
     axis 5.74121e-015 90 90   XYZ
    dof ry
    limits (-180.0 0.0)
 end
  begin
     id 21 
     name lhand
     direction 1 -4.48971e-011 -1.46301e-026   
     length 0.450922   
     axis 9.33524e-015 90 90   XYZ
    dof rx rz
    limits (-90.0 90.0)
           (-45.0 45.0)
  end
  begin
     id 22 
     name lfingers
     direction 1 -4.49039e-011 -2.92602e-026   
     length 0.363545   
     axis 1.86705e-014 90 90   XYZ
    dof rx
    limits (0.0 90.0)
  end
  begin
     id 23
     name lthumb
     direction 0.707107 -6.34941e-011 0.707107   
     length 0.52198   
     axis -90 45 2.85299e-015   XYZ
    dof rx rz
    limits (-45.0 45.0)
           (-45.0 45.0)
  end
  begin
     id 24 
     name rclavicle
     direction -0.825079 0.56158 -0.0622297   
     length 3.39909  
     axis 0 0 0   XYZ 
    dof ry rz
    limits (-10.0 20.0)
           (-20.0 0.0)
  end
  begin
     id 25 
     name rhumerus
     direction -1 -4.48965e-011 1.61691e-027  
     length 4.86725   
     axis -180 30 90   XYZ
    dof rx ry rz
    limits (-90.0 60.0)
           (-90.0 90.0)
           (-90.0 90.0)
  end
  begin
     id 26 
     name rradius
     direction -1 -4.48964e-011 -2.25776e-027   
     length 3.17144   
     axis -180 30 90   XYZ
    dof rx
    limits (-10.0 170.0)
  end
  begin
     id 27 
     name rwrist
     direction -1 -4.48961e-011 -7.31504e-027   
     length 1.58572   
     axis 5.74121e-015 -90 -90   XYZ
    dof ry
    limits (-180.0 0.0)
  end
  begin
     id 28
     name rhand
     direction -1 -4.49013e-011 -1.46301e-026   
     length 0.419368   
     axis 9.33524e-015 -90 -90   XYZ
    dof rx rz
    limits (-90.0 90.0)
           (-45.0 45.0)
  end
  begin
     id 29
     name rfingers
     direction -1 -4.489e-011 -2.92602e-026   
     length 0.338105   
     axis 1.86705e-014 -90 -90   XYZ
    dof rx
    limits (0.0 90.0)
  end
  begin
     id 30
     name rthumb
     direction -0.707107 -6.35022e-011 0.707107   
     length 0.485453   
     axis -90 -45 -2.85299e-015   XYZ
    dof rx rz
    limits (-45.0 45.0)
           (-45.0 45.0)
  end
:hierarchy
  begin
    root lhipjoint rhipjoint lowerback
    lhipjoint lfemur
    lfemur ltibia
    ltibia lfoot
    lfoot ltoes
    rhipjoint rfemur
    rfemur rtibia
    rtibia rfoot
    rfoot rtoes
    lowerback upperback
    upperback thorax
    thorax lowerneck lclavicle rclavicle
    lowerneck upperneck
    upperneck head
    lclavicle lhumerus
    lhumerus lradius
    lradius lwrist
    lwrist lhand lthumb
    lhand lfingers
    rclavicle rhumerus
    rhumerus rradius
    rradius rwrist
    rwrist rhand rthumb
    rhand rfingers
  end

#!OML:ASF H:\Swim 2\Project 1\Capture day 1\Session 1\male.ASF
:FULLY-SPECIFIED
:DEGREES
1099
root 1.16852 13.7172 9.79935 62.1137 6.09526 177.938
lowerback 40.4865 -6.00227 1.28416
upperback 6.09173 -4.92175 0.234167
thorax -12.8142 -1.24641 1.56101
lowerneck -5.32696 -2.44568 -5.69885
upperneck 34.4423 -2.22793 7.15622
head 12.3935 0.728718 3.8607
rclavicle 5.725e-014 -6.4605e-014
rhumerus -997.451 -44.6929 709.131
rradius 25.0701
rwrist 410.062
rhand -19.2895 8.72825
rfingers 7.12502
rthumb 7.02569 -21.1351
lclavicle 5.725e-014 -6.4605e-014
lhumerus -1222.22 2.27924 -112.328
lradius 20.6367
lwrist -1238.79
lhand -9.19443 1.5317
lfingers 7.12502
lthumb 16.7593 30.8284
rfemur 31.9173 16.5307 21.4582
rtibia 22.213
rfoot 28.2602 5.18078
rtoes 15.3654
lfemur 27.3838 -7.33132 -36.7463
ltibia 23.7355
lfoot 21.1538 12.7786
ltoes 31.4234
1100
root 1.20024 13.7081 9.80148 62.4652 6.49782 177.571
lowerback 40.2709 -6.13682 1.80058
upperback 5.9811 -4.93083 0.178955
thorax -12.9129 -1.29161 1.2405
lowerneck -4.66758 -2.55833 -5.9894
upperneck 33.4676 -2.59958 7.77954
head 11.8898 0.527882 4.04397
rclavicle 4.45278e-014 -9.14409e-015
rhumerus -999.392 -45.4307 711.197
rradius 25.6558
rwrist 409.002
rhand -19.266 9.06839
rfingers 7.12502
rthumb 7.04839 -20.7943
lclavicle 4.45278e-014 -9.14409e-015
lhumerus -1223.11 2.00613 -112.876
lradius 20.7562
lwrist -1239.03
lhand -9.49892 1.5312
lfingers 7.12502
lthumb 16.4661 30.8524
rfemur 30.1638 17.0105 21.5033
rtibia 22.2381
rfoot 26.205 4.599
rtoes 15.5483
lfemur 28.3576 -7.07867 -36.7815
ltibia 23.6005
lfoot 22.4573 11.9875
ltoes 31.0584
1101
root 1.23137 13.7025 9.80925 62.8705 6.89587 177.189
lowerback 39.9715 -6.2528 2.31491
upperback 5.87344 -4.92668 0.134182
thorax -12.9779 -1.33503 0.923328
lowerneck -4.12704 -2.6813 -6.15103
upperneck 32.6359 -2.93484 8.2262
head 11.4769 0.346015 4.15145
rclavicle 5.24792e-014 -4.23411e-014
rhumerus -1001.44 -46.1421 713.358
rradius 26.258
rwrist 407.843
rhand -19.2084 9.4069
rfingers 7.12502
rthumb 7.10401 -20.4539
lclavicle 5.24792e-014 -4.23411e-014
lhumerus -1224.01 1.75861 -113.385
lradius 20.8329
lwrist -1239.15
lhand -9.59983 1.52861
lfingers 7.12502
lthumb 16.369 30.8579
rfemur 28.4234 17.4608 21.5238
rtibia 22.1726
rfoot 24.2466 3.93568
rtoes 15.7643
lfemur 29.3325 -6.76198 -36.7636
ltibia 23.3481
lfoot 23.8257 10.9913
ltoes 30.535
1102
root 1.26241 13.7009 9.82098 63.2867 7.29806 176.796
lowerback 39.6231 -6.35782 2.8324
upperback 5.78362 -4.91162 0.0925479
thorax -13.0037 -1.37438 0.6
lowerneck -4.07775 -2.80367 -6.0883
upperneck 32.3985 -3.21757 8.49972
head 11.3993 0.238066 4.19984
rclavicle -3.33958e-014 6.04305e-014
rhumerus -1003.58 -46.8229 715.439
rradius 26.9488
rwrist 406.655
rhand -19.1718 9.81759
rfingers 7.12502
rthumb 7.13932 -20.042
lclavicle -3.33958e-014 6.04305e-014
lhumerus -1224.94 1.55499 -113.845
lradius 20.8919
lwrist -1239.25
lhand -9.52334 1.53095
lfingers 7.12502
lthumb 16.4426 30.8541
rfemur 26.7677 17.8654 21.5412
rtibia 21.9871
rfoot 22.4446 3.18301
rtoes 16.0497
lfemur 30.3346 -6.36812 -36.6864
ltibia 23.0068
lfoot 25.2247 9.82369
ltoes 29.8524
1103
root 1.29332 13.7027 9.83581 63.7285 7.69563 176.403
lowerback 39.2188 -6.45192 3.34536
upperback 5.70507 -4.89177 0.0544921
thorax -12.9946 -1.41258 0.277682
lowerneck -4.44873 -2.91653 -5.8083
upperneck 32.6831 -3.44956 8.6051
head 11.6071 0.200408 4.18539
rclavicle -1.59028e-014 -1.23246e-014
rhumerus -1005.85 -47.4764 717.565
rradius 27.6801
rwrist 405.336
rhand -19.2148 10.2751
rfingers 7.12502
rthumb 7.0978 -19.5858
lclavicle -1.59028e-014 -1.23246e-014
lhumerus -1225.91 1.38666 -114.262
lradius 20.9683
lwrist -1239.44
lhand -9.279 1.45256
lfingers 7.12502
lthumb 16.6779 30.7561
rfemur 25.1855 18.2149 21.5363
rtibia 21.6748
rfoot 20.8569 2.36239
rtoes 16.3816
lfemur 31.3239 -5.90434 -36.5524
ltibia 22.6055
lfoot 26.6169 8.57393
ltoes 29.068
